<?xml version="1.0" standalone="no"?>
<!DOCTYPE svg PUBLIC "-//W3C//DTD SVG 20010904//EN"
 "http://www.w3.org/TR/2001/REC-SVG-20010904/DTD/svg10.dtd">
<svg version="1.0" xmlns="http://www.w3.org/2000/svg"
 width="150.000000pt" height="150.000000pt" viewBox="0 0 150.000000 150.000000"
 preserveAspectRatio="xMidYMid meet">

<g transform="translate(0.000000,150.000000) scale(0.100000,-0.100000)"
fill="#000000" stroke="none">
<path d="M520 1345 c-7 -8 -16 -69 -22 -137 -14 -188 4 -168 -151 -168 -140 0
-157 -5 -157 -45 0 -40 18 -45 153 -45 l130 0 -7 -97 c-9 -125 -18 -234 -22
-253 -1 -8 -3 -23 -3 -32 -1 -16 -15 -18 -140 -18 -155 0 -173 -7 -155 -58 l9
-27 139 -3 139 -3 -7 -72 c-3 -40 -9 -104 -12 -143 -7 -75 6 -104 45 -104 35
0 44 29 57 173 7 78 13 143 13 145 1 1 89 2 197 2 l197 0 -6 -58 c-19 -181
-20 -228 -3 -245 21 -21 49 -22 65 -3 6 7 16 65 21 127 6 63 13 129 16 147 l5
32 132 0 c140 0 157 5 157 45 0 40 -18 45 -152 45 l-128 0 0 31 c0 29 16 230
25 314 2 22 4 43 4 48 1 4 63 7 140 7 155 0 173 7 155 58 l-9 27 -139 3 -139
3 7 72 c3 40 9 104 12 143 7 75 -6 104 -45 104 -34 0 -44 -29 -57 -173 -7 -78
-13 -143 -14 -144 0 -2 -88 -3 -196 -3 l-197 0 6 63 c21 207 21 229 2 243 -24
18 -50 18 -65 -1z m440 -427 c-1 -33 -14 -191 -26 -305 l-6 -63 -194 0 -194 0
0 28 c0 15 7 101 15 192 8 91 15 168 15 173 0 4 88 7 195 7 l195 0 0 -32z"/>
</g>
</svg>
