<?xml version="1.0" standalone="no"?>
<!DOCTYPE svg PUBLIC "-//W3C//DTD SVG 20010904//EN"
 "http://www.w3.org/TR/2001/REC-SVG-20010904/DTD/svg10.dtd">
<svg version="1.0" xmlns="http://www.w3.org/2000/svg"
 width="150.000000pt" height="150.000000pt" viewBox="0 0 150.000000 150.000000"
 preserveAspectRatio="xMidYMid meet">

<g transform="translate(0.000000,150.000000) scale(0.100000,-0.100000)"
fill="#000000" stroke="none">
<path d="M410 1214 c-179 -97 -331 -180 -337 -186 -7 -6 -13 -26 -13 -44 0
-25 7 -38 25 -50 24 -16 29 -16 67 0 23 8 42 15 43 13 1 -1 23 -157 49 -347
30 -212 55 -361 66 -386 11 -26 32 -50 56 -65 39 -24 41 -24 354 -27 209 -2
330 1 360 8 52 13 105 60 119 104 5 17 31 184 57 371 26 187 48 341 49 342 1
2 20 -5 43 -13 38 -16 43 -16 67 0 18 12 25 25 25 50 0 18 -6 38 -12 44 -27
22 -663 362 -678 362 -8 0 -162 -79 -340 -176z m425 -293 c79 -35 121 -112
113 -206 -5 -60 -32 -103 -91 -146 -34 -25 -49 -29 -104 -29 -72 0 -103 13
-150 62 -40 42 -53 76 -53 139 0 146 151 241 285 180z"/>
</g>
</svg>
