<?xml version="1.0" standalone="no"?>
<!DOCTYPE svg PUBLIC "-//W3C//DTD SVG 20010904//EN"
 "http://www.w3.org/TR/2001/REC-SVG-20010904/DTD/svg10.dtd">
<svg version="1.0" xmlns="http://www.w3.org/2000/svg"
 width="150.000000pt" height="150.000000pt" viewBox="0 0 150.000000 150.000000"
 preserveAspectRatio="xMidYMid meet">

<g transform="translate(0.000000,150.000000) scale(0.100000,-0.100000)"
fill="#000000" stroke="none">
<path d="M225 1296 c-37 -16 -82 -67 -93 -104 -4 -15 -7 -214 -7 -442 0 -228
3 -427 7 -442 11 -38 57 -88 95 -104 48 -20 998 -20 1046 0 38 16 84 66 95
104 4 15 7 216 7 447 0 470 0 467 -71 521 l-37 29 -506 2 c-405 2 -512 0 -536
-11z m1036 -105 c11 -13 19 -39 19 -61 l0 -37 -258 -171 c-141 -95 -264 -172
-272 -172 -8 0 -131 77 -272 172 -253 168 -258 172 -258 205 0 43 15 72 43 83
12 5 237 8 500 7 l479 -2 19 -24z m-811 -361 c236 -158 258 -170 300 -170 42
0 64 12 300 170 113 75 211 140 218 144 9 6 12 -61 12 -319 l0 -326 -25 -24
-24 -25 -481 0 -481 0 -24 25 -25 24 0 326 c0 258 3 325 13 319 6 -4 104 -69
217 -144z"/>
</g>
</svg>
