<?xml version="1.0" standalone="no"?>
<!DOCTYPE svg PUBLIC "-//W3C//DTD SVG 20010904//EN"
 "http://www.w3.org/TR/2001/REC-SVG-20010904/DTD/svg10.dtd">
<svg version="1.0" xmlns="http://www.w3.org/2000/svg"
 width="150.000000pt" height="150.000000pt" viewBox="0 0 150.000000 150.000000"
 preserveAspectRatio="xMidYMid meet">

<g transform="translate(0.000000,150.000000) scale(0.100000,-0.100000)"
fill="#000000" stroke="none">
<path d="M597 1404 c-420 -101 -638 -564 -448 -949 114 -231 345 -375 601
-375 184 0 335 65 470 200 67 67 95 103 128 170 96 193 96 400 -1 600 -54 112
-176 238 -284 293 -139 72 -322 96 -466 61z m265 -89 c107 -22 210 -78 289
-155 232 -229 234 -587 5 -815 -122 -121 -243 -170 -416 -168 -118 1 -193 22
-296 84 -156 94 -274 304 -274 489 0 127 64 289 151 384 142 155 342 222 541
181z"/>
<path d="M412 840 c-81 -50 -59 -178 35 -196 64 -12 133 42 133 104 0 36 -27
80 -60 97 -39 20 -69 19 -108 -5z m79 -50 c27 -15 26 -66 -2 -80 -16 -9 -26
-8 -45 5 -30 19 -31 49 -2 69 27 19 24 19 49 6z"/>
<path d="M698 844 c-30 -16 -58 -61 -58 -94 0 -12 7 -34 15 -50 17 -32 61 -60
95 -60 53 0 110 57 110 110 0 34 -28 78 -60 95 -36 19 -67 19 -102 -1z m82
-64 c11 -11 20 -24 20 -30 0 -5 -9 -19 -20 -30 -11 -11 -24 -20 -30 -20 -5 0
-19 9 -30 20 -11 11 -20 25 -20 30 0 6 9 19 20 30 11 11 25 20 30 20 6 0 19
-9 30 -20z"/>
<path d="M978 845 c-31 -17 -58 -63 -58 -97 0 -35 34 -83 69 -97 41 -18 92 -7
122 25 35 37 34 113 -2 150 -32 32 -93 41 -131 19z m80 -61 c29 -20 28 -50 -2
-69 -19 -13 -29 -14 -45 -5 -26 14 -29 65 -3 79 23 14 24 14 50 -5z"/>
</g>
</svg>
