<?xml version="1.0" standalone="no"?>
<!DOCTYPE svg PUBLIC "-//W3C//DTD SVG 20010904//EN"
 "http://www.w3.org/TR/2001/REC-SVG-20010904/DTD/svg10.dtd">
<svg version="1.0" xmlns="http://www.w3.org/2000/svg"
 width="150.000000pt" height="150.000000pt" viewBox="0 0 150.000000 150.000000"
 preserveAspectRatio="xMidYMid meet">

<g transform="translate(0.000000,150.000000) scale(0.100000,-0.100000)"
fill="#000000" stroke="none">
<path d="M630 1362 c-163 -43 -289 -175 -334 -348 -9 -34 -18 -111 -22 -170
-8 -172 -40 -270 -117 -362 -68 -81 -31 -102 178 -102 l142 0 16 -57 c57 -205
324 -262 463 -100 20 25 42 66 52 99 l17 58 135 1 c128 0 169 3 198 14 22 8
13 56 -18 92 -71 81 -106 189 -115 353 -3 63 -13 142 -21 175 -68 263 -318
414 -574 347z m254 -103 c64 -23 146 -93 181 -153 43 -73 56 -127 65 -266 11
-164 29 -234 88 -352 2 -5 -208 -8 -467 -8 -259 0 -471 2 -471 4 0 2 11 26 25
54 38 76 55 155 65 302 9 139 22 193 65 266 34 59 117 129 178 153 73 28 197
28 271 0z m32 -910 c-13 -68 -92 -129 -166 -129 -74 0 -153 61 -166 129 l-6
31 172 0 173 0 -7 -31z"/>
</g>
</svg>
