<?xml version="1.0" standalone="no"?>
<!DOCTYPE svg PUBLIC "-//W3C//DTD SVG 20010904//EN"
 "http://www.w3.org/TR/2001/REC-SVG-20010904/DTD/svg10.dtd">
<svg version="1.0" xmlns="http://www.w3.org/2000/svg"
 width="150.000000pt" height="150.000000pt" viewBox="0 0 150.000000 150.000000"
 preserveAspectRatio="xMidYMid meet">

<g transform="translate(0.000000,150.000000) scale(0.100000,-0.100000)"
fill="#000000" stroke="none">
<path d="M662 1383 c-108 -32 -182 -133 -202 -275 -24 -168 29 -288 147 -329
50 -18 235 -18 286 0 118 41 173 165 148 330 -23 147 -96 243 -209 275 -70 19
-101 19 -170 -1z m178 -103 c72 -37 110 -120 110 -244 0 -137 -44 -176 -198
-176 -158 0 -202 36 -202 165 1 133 36 217 107 254 51 27 132 27 183 1z"/>
<path d="M605 655 c-97 -27 -189 -81 -253 -149 -107 -115 -148 -245 -100 -316
45 -66 38 -65 498 -65 460 0 453 -1 498 65 48 71 7 201 -99 315 -68 72 -162
127 -260 150 -78 18 -216 18 -284 0z m246 -89 c78 -17 137 -45 196 -93 81 -65
147 -189 123 -232 -11 -21 -17 -21 -420 -21 -403 0 -409 0 -420 21 -9 15 -8
31 4 64 43 127 164 228 310 260 80 18 127 18 207 1z"/>
</g>
</svg>
