<?xml version="1.0" standalone="no"?>
<!DOCTYPE svg PUBLIC "-//W3C//DTD SVG 20010904//EN"
 "http://www.w3.org/TR/2001/REC-SVG-20010904/DTD/svg10.dtd">
<svg version="1.0" xmlns="http://www.w3.org/2000/svg"
 width="150.000000pt" height="150.000000pt" viewBox="0 0 150.000000 150.000000"
 preserveAspectRatio="xMidYMid meet">
<metadata>
Created by potrace 1.16, written by Peter Selinger 2001-2019
</metadata>
<g transform="translate(0.000000,150.000000) scale(0.100000,-0.100000)"
fill="#000000" stroke="none">
<path d="M977 1320 c-139 -35 -235 -162 -225 -301 4 -56 9 -55 -102 -35 -154
28 -315 112 -432 226 -44 42 -64 56 -70 47 -16 -24 -28 -83 -28 -138 0 -66 43
-163 91 -204 29 -24 30 -25 7 -25 -13 1 -41 7 -63 15 -22 8 -40 15 -41 15 -1
0 3 -23 7 -51 15 -96 98 -196 183 -221 l40 -12 -34 -8 c-19 -4 -47 -5 -63 -2
-32 7 -33 4 -8 -44 39 -75 121 -135 202 -148 l42 -7 -24 -20 c-65 -53 -177
-92 -304 -105 l-80 -8 75 -37 c119 -58 214 -79 360 -79 141 1 239 21 349 72
262 123 451 401 469 689 l5 95 69 68 c37 38 68 73 68 77 0 5 -17 3 -37 -4 -21
-7 -54 -16 -73 -20 l-35 -7 36 38 c91 98 90 120 -3 83 -87 -34 -109 -35 -132
-10 -45 50 -170 80 -249 61z"/>
</g>
</svg>
